<svg width="107" height="120" viewBox="0 0 107 120" fill="none" xmlns="http://www.w3.org/2000/svg">
<g filter="url(#filter0_d_156_2730)">
<path d="M59.5049 0C75.8268 0.000101165 90.5026 6.98225 100.658 18.0957C103.698 21.423 102.944 27.0101 99.5693 29.998C90.6715 37.8767 75.2328 51.5813 74.6387 52.0293C71.9495 54.4143 71.9495 58.5857 74.6387 60.9707L98.9297 82.5117C102.024 85.2554 102.559 89.9547 99.6924 92.9355C89.5832 103.448 75.3164 110 59.5049 110C28.8505 110 4 85.3757 4 55C4.00013 24.6245 28.8506 0 59.5049 0ZM57.916 59.1338C56.9695 58.6149 56.4994 59.7201 56.9805 60.6865C60.5426 67.8411 57.5856 81.1706 47.2051 73.2646C46.4062 72.6562 45.2062 72.875 44.7715 73.7803C43.4404 76.552 42.3486 79.0542 42.3486 82.2773C42.3489 93.0465 50.9267 98.7773 59 98.7773C67.0732 98.7772 75.1462 93.0464 75.1465 82.2773C75.1465 79.8113 74.7817 77.2943 74.1094 74.8799C73.7739 73.6759 72.3354 74.0187 71.0957 74.1787C68.9427 74.4564 68.0757 65.3649 59 59.7773C58.5773 59.5171 58.2244 59.3029 57.916 59.1338ZM58.0244 77.417C57.7278 76.6003 58.0823 75.9 58.8105 76.374C62.4382 78.7352 64.3159 80.4534 65.4424 82.8652C66.5686 85.2768 66.5684 86.5042 66.5684 88.3574C66.5682 93.7765 62.8773 96.7771 58.8105 96.7773C54.7436 96.7773 50.4221 94.0931 50.4219 88.3574C50.4219 87.0228 50.7547 85.9201 51.2178 84.8018C51.6138 83.8454 52.8611 83.6391 53.7432 84.1807C58.0339 86.8147 59.3523 81.0745 58.0244 77.417ZM62.5322 17.3594H58.4951V11.0498C55.2853 11.2086 52.1137 11.7485 49.0527 12.6484L51.792 17.875L48.21 19.7188L45.21 13.9932C45.067 14.0516 44.9235 14.1089 44.7812 14.1689C42.5141 15.1264 40.358 16.286 38.3408 17.6279L42.9111 21.3691L40.3398 24.4531L35.0938 20.1582C33.5599 22.0285 33.9435 24.8729 35.917 26.5166L50.4082 38.584C52.1015 39.994 54.5931 39.739 56.623 38.8818C57.8452 38.3657 59.1706 38.099 60.5107 38.0986C61.8509 38.0983 63.1759 38.3645 64.3984 38.8799C66.4291 39.736 68.9217 39.9894 70.6143 38.5781L85.0967 26.5029C87.0287 24.892 87.4358 22.1302 86.0098 20.2607L80.8896 24.4531L78.3184 21.3691L82.7969 17.7021C80.7419 16.3248 78.5418 15.1367 76.2256 14.1602C76.0073 14.0681 75.7873 13.9797 75.5674 13.8916L72.5146 19.7188L68.9316 17.875L71.71 12.5713C68.731 11.7176 65.6495 11.2041 62.5322 11.0498V17.3594ZM59.0215 23.9434C59.2016 22.1425 61.8258 22.1424 62.0059 23.9434L62.9707 33.6016C63.0586 34.4843 62.3656 35.2498 61.4785 35.25H59.5488C58.6617 35.2499 57.9687 34.4843 58.0566 33.6016L59.0215 23.9434Z" fill="black"/>
</g>
<defs>
<filter id="filter0_d_156_2730" x="0" y="0" width="106.569" height="120" filterUnits="userSpaceOnUse" color-interpolation-filters="sRGB">
<feFlood flood-opacity="0" result="BackgroundImageFix"/>
<feColorMatrix in="SourceAlpha" type="matrix" values="0 0 0 0 0 0 0 0 0 0 0 0 0 0 0 0 0 0 127 0" result="hardAlpha"/>
<feOffset dy="6"/>
<feGaussianBlur stdDeviation="2"/>
<feComposite in2="hardAlpha" operator="out"/>
<feColorMatrix type="matrix" values="0 0 0 0 0.317308 0 0 0 0 0.317308 0 0 0 0 0.317308 0 0 0 0.2 0"/>
<feBlend mode="normal" in2="BackgroundImageFix" result="effect1_dropShadow_156_2730"/>
<feBlend mode="normal" in="SourceGraphic" in2="effect1_dropShadow_156_2730" result="shape"/>
</filter>
</defs>
</svg>
